<svg width="271" height="162" viewBox="0 0 271 162" fill="none" xmlns="http://www.w3.org/2000/svg">
<path d="M72.0933 74.0497L73.0658 143.009C73.0658 145.537 74.6219 147.093 77.1505 147.482L101.075 151.178C103.798 151.762 105.354 150.4 105.354 147.872L105.16 69.1275C105.16 66.4043 103.604 65.0428 101.075 65.2373C101.075 65.2373 80.033 69.4334 76.178 69.9649C72.3229 70.4965 72.0933 71.521 72.0933 74.0497Z" fill="#075985"/>
<path d="M183.352 157.014C183.158 159.931 181.018 161.293 178.295 161.293L113.718 153.318C111.383 152.929 109.827 151.373 109.827 149.039V129.588C109.827 128.81 109.827 127.254 110.605 126.476C111.189 125.698 111.967 125.114 112.551 124.53L143.283 86.9415L115.663 89.2756C113.329 89.2756 111.772 88.1085 111.772 85.5799V66.3234C111.772 63.6003 113.329 61.8497 115.857 61.4607L180.629 46.3592C183.936 45.5811 184.519 48.6933 184.519 51.4164L183.352 83.8779C183.352 86.6011 182.38 89.3242 180.434 91.4638L146.59 126.865L180.434 126.865C183.741 126.865 184.519 129.782 184.519 132.505L183.352 157.014Z" fill="#075985"/>
<path d="M270.105 150.983C270.105 153.123 269.133 154.873 266.799 155.068L193.468 160.903C190.745 160.903 188.217 160.125 188.411 157.013L189.189 132.31C189.189 131.143 189.384 129.198 190.162 128.031C190.745 127.058 191.718 126.086 192.496 125.113L224.395 89.907L193.009 87.1029C189.703 87.1029 189.119 84.1852 189.119 81.4621L190.286 51.4049C190.286 48.6818 191.259 45.1806 194.565 44.9861L262.13 60.3416C264.854 61.3141 266.215 63.6482 266.021 66.3714L265.632 89.129C265.632 91.4631 264.465 93.4082 262.908 94.7698L232.176 125.697L265.243 125.502C268.16 125.502 269.327 127.836 269.327 130.365L270.105 150.983Z" fill="#075985"/>
<circle cx="89.8252" cy="34.9891" r="20.2614" fill="#075985"/>
<path d="M21.2012 9.96332C27.0364 1.79403 36.7622 -0.345579 46.0986 0.0434004C51.1559 0.23791 56.6023 1.01662 61.2705 2.5727C65.3552 3.73975 69.4402 5.48957 72.9414 7.82367C74.6408 8.9566 75.4104 10.5022 75.2539 12.2348C67.769 17.0381 62.8096 25.4348 62.8096 34.9887C62.8096 37.4674 63.1453 39.8677 63.7705 42.1479C63.5939 42.3536 63.4094 42.5249 63.2158 42.6411C62.0488 43.2246 60.8816 42.2519 60.1035 41.6684C58.9365 40.6959 57.5744 39.9181 56.2129 39.1401C54.6569 38.3622 53.101 38.1674 51.3506 38.1674C49.4055 38.1674 48.238 39.1406 47.46 40.6967C46.0986 43.4198 45.9043 47.1152 45.9043 50.0327C45.7023 57.7104 45.6713 67.4861 45.7354 77.7524L61.6592 74.017C64.1878 74.017 65.7441 75.5734 65.7441 78.102V96.5795C65.7441 99.1082 63.9933 100.276 61.6592 100.276L46.0596 103.935C46.4046 123.854 46.877 140.275 46.877 140.275C46.8768 142.803 45.126 143.776 42.792 143.581L17.7002 140.091C15.3662 139.897 13.6153 138.535 13.6152 136.201C13.6152 136.201 13.3567 125.17 13.1055 111.666L4.08496 113.784C1.75084 113.784 0 112.616 0 110.087L0 91.6088C0.000153903 89.0804 1.55646 87.5248 4.08496 87.5248L12.71 85.5004C12.6686 81.4268 12.6436 77.6255 12.6436 74.3461L12.6436 51.1996C12.6436 37.973 13.2263 21.2449 21.2012 9.96332Z" fill="#075985"/>
</svg>
