<?xml version="1.0" encoding="UTF-8"?>
<svg version="1.1" xmlns="http://www.w3.org/2000/svg" width="32" height="32">
<path d="M0 0 C10.56 0 21.12 0 32 0 C32 10.56 32 21.12 32 32 C21.44 32 10.88 32 0 32 C0 21.44 0 10.88 0 0 Z " fill="#FABC1F" transform="translate(0,0)"/>
<path d="M0 0 C10.56 0 21.12 0 32 0 C32 10.56 32 21.12 32 32 C21.44 32 10.88 32 0 32 C0 21.44 0 10.88 0 0 Z M16 2 C16 2.99 16 3.98 16 5 C15.09507813 4.89558594 15.09507813 4.89558594 14.171875 4.7890625 C11.68057264 4.62029686 9.46882664 4.61331631 7 5 C4.05726678 7.6556373 3.19347855 9.66194308 2.62890625 13.56640625 C2.32680844 20.14847664 3.61465304 24.3930191 7 30 C14.88746564 30.76330313 19.76378334 28.90792503 26 24 C27.83635068 22.11349588 27.83635068 22.11349588 29 20 C28.77861795 15.79374114 28.34955038 13.52432557 26 10 C26 8.68 26 7.36 26 6 C25.34 6 24.68 6 24 6 C23.67 5.01 23.34 4.02 23 3 C20.69 2.67 18.38 2.34 16 2 Z " fill="#EC0688" transform="translate(0,0)"/>
<path d="M0 0 C2.31 0.33 4.62 0.66 7 1 C7.33 1.99 7.66 2.98 8 4 C8.99 4.33 9.98 4.66 11 5 C10.6596875 5.86625 10.6596875 5.86625 10.3125 6.75 C9.71909789 9.09421317 9.71909789 9.09421317 11.4375 10.9375 C11.953125 11.618125 12.46875 12.29875 13 13 C13.1875 15.75 13.1875 15.75 13 18 C11.35 17.67 9.7 17.34 8 17 C7.67 16.01 7.34 15.02 7 14 C6.01 14.66 5.02 15.32 4 16 C4.66 16.33 5.32 16.66 6 17 C4.9024777 19.99324263 4.32317108 20.84610901 1.375 22.25 C0.59125 22.4975 -0.1925 22.745 -1 23 C-1 19.88742431 -0.82638376 17.89234315 0 15 C0.99 15 1.98 15 3 15 C3 14.01 3 13.02 3 12 C2.01 12 1.02 12 0 12 C-0.33 11.34 -0.66 10.68 -1 10 C-2.32 10.33 -3.64 10.66 -5 11 C-5 11.66 -5 12.32 -5 13 C-5.99 13 -6.98 13 -8 13 C-8 12.34 -8 11.68 -8 11 C-6.37373596 9.61767557 -4.7074998 8.28062485 -3 7 C-3.33 6.67 -3.66 6.34 -4 6 C-4.99 7.485 -4.99 7.485 -6 9 C-8.475 8.01 -8.475 8.01 -11 7 C-10.34 5.68 -9.68 4.36 -9 3 C-6.03 3 -3.06 3 0 3 C0 2.01 0 1.02 0 0 Z " fill="#FBC818" transform="translate(16,2)"/>
<path d="M0 0 C0.33 1.32 0.66 2.64 1 4 C1.99 4 2.98 4 4 4 C4.33 3.34 4.66 2.68 5 2 C4.67 3.65 4.34 5.3 4 7 C3.01 7.33 2.02 7.66 1 8 C0.67 8.99 0.34 9.98 0 11 C0.66 11.33 1.32 11.66 2 12 C1.01 13.485 1.01 13.485 0 15 C4.14670039 12.62370911 4.14670039 12.62370911 7 9 C6.01 8.67 5.02 8.34 4 8 C5.65 6.68 7.3 5.36 9 4 C9 5.65 9 7.3 9 9 C9.99 9 10.98 9 12 9 C12.33 8.01 12.66 7.02 13 6 C13.05683639 8.84181973 13.07100822 10.42546101 12 13 C6.30672814 18.02609156 1.51819384 20.13922581 -6 20 C-5.34 18.68 -4.68 17.36 -4 16 C-3.34 16 -2.68 16 -2 16 C-1.79029441 11.85906302 -1.79029441 11.85906302 -3 8 C-2.34 8 -1.68 8 -1 8 C-1 7.01 -1 6.02 -1 5 C-1.99 5 -2.98 5 -4 5 C-4 4.34 -4 3.68 -4 3 C-3.01 2.67 -2.02 2.34 -1 2 C-0.67 1.34 -0.34 0.68 0 0 Z " fill="#FEEE03" transform="translate(15,10)"/>
<path d="M0 0 C0.99 0.66 1.98 1.32 3 2 C1.71034824 3.37562854 0.37310707 4.70766393 -1 6 C-1.66 6 -2.32 6 -3 6 C-3 6.66 -3 7.32 -3 8 C-2.01 8 -1.02 8 0 8 C-0.33 9.32 -0.66 10.64 -1 12 C-1.99 11.67 -2.98 11.34 -4 11 C-4 11.66 -4 12.32 -4 13 C-4.99 13.33 -5.98 13.66 -7 14 C-7 10.04 -7 6.08 -7 2 C-5.68 1.67 -4.36 1.34 -3 1 C-3 1.99 -3 2.98 -3 4 C-2.34 3.67 -1.68 3.34 -1 3 C-0.67 2.01 -0.34 1.02 0 0 Z " fill="#FEF002" transform="translate(11,7)"/>
<path d="M0 0 C2.31 0.33 4.62 0.66 7 1 C7.33 1.99 7.66 2.98 8 4 C8.99 4.33 9.98 4.66 11 5 C10.67 5.99 10.34 6.98 10 8 C6.06629643 7.43804235 3.16824393 6.44407389 0 4 C0 2.68 0 1.36 0 0 Z " fill="#F8A92B" transform="translate(16,2)"/>
<path d="M0 0 C0.66 0 1.32 0 2 0 C2 0.99 2 1.98 2 3 C1.01 3.495 1.01 3.495 0 4 C0.66 4.33 1.32 4.66 2 5 C0.9024777 7.99324263 0.32317108 8.84610901 -2.625 10.25 C-3.40875 10.4975 -4.1925 10.745 -5 11 C-5 7.88742431 -4.82638376 5.89234315 -4 3 C-3.01 3 -2.02 3 -1 3 C-0.67 2.01 -0.34 1.02 0 0 Z " fill="#F79537" transform="translate(20,14)"/>
<path d="M0 0 C1.32 0.66 2.64 1.32 4 2 C3.67 3.32 3.34 4.64 3 6 C0.525 5.01 0.525 5.01 -2 4 C-1.34 2.68 -0.68 1.36 0 0 Z " fill="#F9B126" transform="translate(7,5)"/>
<path d="M0 0 C0.12375 0.639375 0.2475 1.27875 0.375 1.9375 C0.684375 2.9584375 0.684375 2.9584375 1 4 C1.66 4.33 2.32 4.66 3 5 C2.01 5 1.02 5 0 5 C-0.33 5.66 -0.66 6.32 -1 7 C-1 6.34 -1 5.68 -1 5 C-1.99 5 -2.98 5 -4 5 C-4 4.34 -4 3.68 -4 3 C-3.01 2.67 -2.02 2.34 -1 2 C-0.67 1.34 -0.34 0.68 0 0 Z " fill="#FDE906" transform="translate(15,10)"/>
</svg>
